<svg width="1113" height="289" viewBox="0 0 1113 289" fill="none" xmlns="http://www.w3.org/2000/svg">
<rect width="1113" height="289.001" rx="20" fill="#E2E5EC" fill-opacity="0.2"/>
<path d="M31.2559 40.0005L1083 40.0005" stroke="#D0D0D0" stroke-linecap="round" stroke-dasharray="5 5"/>
<path d="M31.2559 80.0005L1083 80.0005" stroke="#D0D0D0" stroke-linecap="round" stroke-dasharray="5 5"/>
<path d="M31.2559 120L1083 120" stroke="#D0D0D0" stroke-linecap="round" stroke-dasharray="5 5"/>
<path d="M31.2559 160L1083 160" stroke="#D0D0D0" stroke-linecap="round" stroke-dasharray="5 5"/>
<path d="M31.2559 200L1083 200" stroke="#D0D0D0" stroke-linecap="round" stroke-dasharray="5 5"/>
<path d="M31.2559 240L1083 240" stroke="#D0D0D0" stroke-linecap="round" stroke-dasharray="5 5"/>
<path d="M112.786 202.168L199.92 162.074L285.007 135.074L372.443 121.574L454.709 123.574L519.998 135.074L597.998 176L680.498 186L773.998 176L867.498 135.075L953.998 121.574" stroke="#27AE60" stroke-width="5"/>
<path d="M207.005 226L293.504 199L376.004 199L454.998 226L522.777 226L598.29 226L680.512 214L774.012 214L867.511 200L954.011 200" stroke="#FB3030" stroke-width="5"/>
<circle cx="952.998" cy="122" r="7" fill="#27AE60"/>
<circle cx="200.998" cy="162" r="7" fill="#27AE60"/>
<circle cx="287.998" cy="135" r="7" fill="#27AE60"/>
<circle cx="370.998" cy="122" r="7" fill="#27AE60"/>
<circle cx="454.998" cy="124" r="7" fill="#27AE60"/>
<circle cx="519.998" cy="135" r="7" fill="#27AE60"/>
<circle cx="598.998" cy="176" r="7" fill="#27AE60"/>
<circle cx="680.998" cy="186" r="7" fill="#27AE60"/>
<circle cx="772.998" cy="175" r="7" fill="#27AE60"/>
<circle cx="866.998" cy="135" r="7" fill="#27AE60"/>
<circle cx="208.998" cy="225" r="7" fill="#FB3030"/>
<circle cx="293" cy="199" r="7" fill="#FB3030"/>
<circle cx="378" cy="199" r="7" fill="#FB3030"/>
<circle cx="456" cy="226" r="7" fill="#FB3030"/>
<circle cx="600" cy="226" r="7" fill="#FB3030"/>
<circle cx="681" cy="213" r="7" fill="#FB3030"/>
<circle cx="773" cy="215" r="7" fill="#FB3030"/>
<circle cx="868" cy="200" r="7" fill="#FB3030"/>
<circle cx="953" cy="200" r="7" fill="#FB3030"/>
<path d="M33.0195 36V28.6641H32.9961L30.7578 30.2754V29.1621L33.0078 27.5449H34.0391V36H33.0195ZM39.1426 36.1406C37.168 36.1406 36.0254 34.4414 36.0254 31.7695C36.0254 29.1211 37.1797 27.4043 39.1426 27.4043C41.1055 27.4043 42.248 29.1094 42.248 31.7637C42.248 34.4355 41.1113 36.1406 39.1426 36.1406ZM39.1426 35.2207C40.4609 35.2207 41.1875 33.8789 41.1875 31.7695C41.1875 29.6895 40.4492 28.3301 39.1426 28.3301C37.8359 28.3301 37.0859 29.7012 37.0859 31.7637C37.0859 33.873 37.8184 35.2207 39.1426 35.2207ZM43.9004 37.6816H43.0508L43.6191 34.6992H44.7031L43.9004 37.6816ZM49.2324 36.1406C47.2578 36.1406 46.1152 34.4414 46.1152 31.7695C46.1152 29.1211 47.2695 27.4043 49.2324 27.4043C51.1953 27.4043 52.3379 29.1094 52.3379 31.7637C52.3379 34.4355 51.2012 36.1406 49.2324 36.1406ZM49.2324 35.2207C50.5508 35.2207 51.2773 33.8789 51.2773 31.7695C51.2773 29.6895 50.5391 28.3301 49.2324 28.3301C47.9258 28.3301 47.1758 29.7012 47.1758 31.7637C47.1758 33.873 47.9082 35.2207 49.2324 35.2207ZM56.5098 36.1406C54.5352 36.1406 53.3926 34.4414 53.3926 31.7695C53.3926 29.1211 54.5469 27.4043 56.5098 27.4043C58.4727 27.4043 59.6152 29.1094 59.6152 31.7637C59.6152 34.4355 58.4785 36.1406 56.5098 36.1406ZM56.5098 35.2207C57.8281 35.2207 58.5547 33.8789 58.5547 31.7695C58.5547 29.6895 57.8164 28.3301 56.5098 28.3301C55.2031 28.3301 54.4531 29.7012 54.4531 31.7637C54.4531 33.873 55.1855 35.2207 56.5098 35.2207ZM67.7773 29.9062V30.7441H65.8086V36H64.8008V30.7441H62.832V29.9062H67.7773ZM73.9355 36V29.9062H74.9434V36H73.9355ZM70.8652 32.6895H69.7285V35.1621H70.8652C71.6562 35.1621 72.166 34.6699 72.166 33.9258C72.166 33.1758 71.6504 32.6895 70.8652 32.6895ZM68.7207 36V29.9062H69.7285V31.8516H70.8828C72.2773 31.8516 73.1738 32.6543 73.1738 33.9258C73.1738 35.1973 72.2773 36 70.8828 36H68.7207ZM81.418 31.7812H80.4102C80.2344 31.1953 79.7363 30.6973 78.875 30.6973C77.8145 30.6973 77.1172 31.5938 77.1172 32.9531C77.1172 34.3477 77.8262 35.209 78.8867 35.209C79.6953 35.209 80.2285 34.8105 80.4219 34.1367H81.4297C81.2305 35.291 80.252 36.1055 78.8809 36.1055C77.1875 36.1055 76.0801 34.8926 76.0801 32.9531C76.0801 31.0547 77.1816 29.8008 78.8691 29.8008C80.3398 29.8008 81.2363 30.7441 81.418 31.7812ZM83.2988 36.0586C82.9238 36.0586 82.6309 35.7656 82.6309 35.3906C82.6309 35.0156 82.9238 34.7227 83.2988 34.7227C83.6738 34.7227 83.9668 35.0156 83.9668 35.3906C83.9668 35.7656 83.6738 36.0586 83.2988 36.0586Z" fill="black" fill-opacity="0.5"/>
<path d="M33.8301 76.1406C32.3887 76.1406 31.2812 75.2734 31.0234 73.9492H32.0957C32.3184 74.7168 33.0039 75.2207 33.8418 75.2207C35.248 75.2207 36.0566 73.9434 36.0859 71.6992H36.0801C36.0742 71.6992 36.0742 71.6992 36.0684 71.6992C35.7109 72.5371 34.7852 73.082 33.707 73.082C32.0957 73.082 30.9004 71.8926 30.9004 70.2871C30.9004 68.6172 32.1602 67.3984 33.8945 67.3984C35.166 67.3984 36.1738 68.084 36.6895 69.2969C36.9707 69.9473 37.1055 70.709 37.1055 71.6289C37.1055 74.4766 35.8984 76.1406 33.8301 76.1406ZM33.8887 72.1562C35.0078 72.1562 35.8398 71.3594 35.8398 70.2812C35.8398 69.1973 34.9961 68.3477 33.9062 68.3477C32.8223 68.3477 31.9668 69.1914 31.9668 70.252C31.9668 71.3535 32.7812 72.1562 33.8887 72.1562ZM38.7637 77.6816H37.9141L38.4824 74.6992H39.5664L38.7637 77.6816ZM44.1602 76.1406C42.543 76.1406 41.3477 75.1328 41.2598 73.6914H42.2969C42.3906 74.5938 43.1582 75.2148 44.1719 75.2148C45.3203 75.2148 46.1172 74.418 46.1172 73.2812C46.1172 72.1445 45.3145 71.3301 44.1895 71.3301C43.3984 71.3301 42.7246 71.6875 42.3789 72.2793H41.3887L41.8516 67.5449H46.6914V68.4824H42.7188L42.4609 71.2363H42.4844C42.8652 70.7266 43.5684 70.4219 44.377 70.4219C46 70.4219 47.1719 71.6113 47.1719 73.252C47.1719 74.9512 45.9238 76.1406 44.1602 76.1406ZM51.2324 76.1406C49.2578 76.1406 48.1152 74.4414 48.1152 71.7695C48.1152 69.1211 49.2695 67.4043 51.2324 67.4043C53.1953 67.4043 54.3379 69.1094 54.3379 71.7637C54.3379 74.4355 53.2012 76.1406 51.2324 76.1406ZM51.2324 75.2207C52.5508 75.2207 53.2773 73.8789 53.2773 71.7695C53.2773 69.6895 52.5391 68.3301 51.2324 68.3301C49.9258 68.3301 49.1758 69.7012 49.1758 71.7637C49.1758 73.873 49.9082 75.2207 51.2324 75.2207ZM62.5 69.9062V70.7441H60.5312V76H59.5234V70.7441H57.5547V69.9062H62.5ZM68.6582 76V69.9062H69.666V76H68.6582ZM65.5879 72.6895H64.4512V75.1621H65.5879C66.3789 75.1621 66.8887 74.6699 66.8887 73.9258C66.8887 73.1758 66.373 72.6895 65.5879 72.6895ZM63.4434 76V69.9062H64.4512V71.8516H65.6055C67 71.8516 67.8965 72.6543 67.8965 73.9258C67.8965 75.1973 67 76 65.6055 76H63.4434ZM76.1406 71.7812H75.1328C74.957 71.1953 74.459 70.6973 73.5977 70.6973C72.5371 70.6973 71.8398 71.5938 71.8398 72.9531C71.8398 74.3477 72.5488 75.209 73.6094 75.209C74.418 75.209 74.9512 74.8105 75.1445 74.1367H76.1523C75.9531 75.291 74.9746 76.1055 73.6035 76.1055C71.9102 76.1055 70.8027 74.8926 70.8027 72.9531C70.8027 71.0547 71.9043 69.8008 73.5918 69.8008C75.0625 69.8008 75.959 70.7441 76.1406 71.7812ZM78.0215 76.0586C77.6465 76.0586 77.3535 75.7656 77.3535 75.3906C77.3535 75.0156 77.6465 74.7227 78.0215 74.7227C78.3965 74.7227 78.6895 75.0156 78.6895 75.3906C78.6895 75.7656 78.3965 76.0586 78.0215 76.0586Z" fill="black" fill-opacity="0.5"/>
<path d="M33.7598 116.141C32.3184 116.141 31.2109 115.273 30.9531 113.949H32.0254C32.248 114.717 32.9336 115.221 33.7715 115.221C35.1777 115.221 35.9863 113.943 36.0156 111.699H36.0098C36.0039 111.699 36.0039 111.699 35.998 111.699C35.6406 112.537 34.7148 113.082 33.6367 113.082C32.0254 113.082 30.8301 111.893 30.8301 110.287C30.8301 108.617 32.0898 107.398 33.8242 107.398C35.0957 107.398 36.1035 108.084 36.6191 109.297C36.9004 109.947 37.0352 110.709 37.0352 111.629C37.0352 114.477 35.8281 116.141 33.7598 116.141ZM33.8184 112.156C34.9375 112.156 35.7695 111.359 35.7695 110.281C35.7695 109.197 34.9258 108.348 33.8359 108.348C32.752 108.348 31.8965 109.191 31.8965 110.252C31.8965 111.354 32.7109 112.156 33.8184 112.156ZM38.6934 117.682H37.8438L38.4121 114.699H39.4961L38.6934 117.682ZM44.0254 116.141C42.0508 116.141 40.9082 114.441 40.9082 111.77C40.9082 109.121 42.0625 107.404 44.0254 107.404C45.9883 107.404 47.1309 109.109 47.1309 111.764C47.1309 114.436 45.9941 116.141 44.0254 116.141ZM44.0254 115.221C45.3438 115.221 46.0703 113.879 46.0703 111.77C46.0703 109.689 45.332 108.33 44.0254 108.33C42.7188 108.33 41.9688 109.701 41.9688 111.764C41.9688 113.873 42.7012 115.221 44.0254 115.221ZM51.3027 116.141C49.3281 116.141 48.1855 114.441 48.1855 111.77C48.1855 109.121 49.3398 107.404 51.3027 107.404C53.2656 107.404 54.4082 109.109 54.4082 111.764C54.4082 114.436 53.2715 116.141 51.3027 116.141ZM51.3027 115.221C52.6211 115.221 53.3477 113.879 53.3477 111.77C53.3477 109.689 52.6094 108.33 51.3027 108.33C49.9961 108.33 49.2461 109.701 49.2461 111.764C49.2461 113.873 49.9785 115.221 51.3027 115.221ZM62.5703 109.906V110.744H60.6016V116H59.5938V110.744H57.625V109.906H62.5703ZM68.7285 116V109.906H69.7363V116H68.7285ZM65.6582 112.689H64.5215V115.162H65.6582C66.4492 115.162 66.959 114.67 66.959 113.926C66.959 113.176 66.4434 112.689 65.6582 112.689ZM63.5137 116V109.906H64.5215V111.852H65.6758C67.0703 111.852 67.9668 112.654 67.9668 113.926C67.9668 115.197 67.0703 116 65.6758 116H63.5137ZM76.2109 111.781H75.2031C75.0273 111.195 74.5293 110.697 73.668 110.697C72.6074 110.697 71.9102 111.594 71.9102 112.953C71.9102 114.348 72.6191 115.209 73.6797 115.209C74.4883 115.209 75.0215 114.811 75.2148 114.137H76.2227C76.0234 115.291 75.0449 116.105 73.6738 116.105C71.9805 116.105 70.873 114.893 70.873 112.953C70.873 111.055 71.9746 109.801 73.6621 109.801C75.1328 109.801 76.0293 110.744 76.2109 111.781ZM78.0918 116.059C77.7168 116.059 77.4238 115.766 77.4238 115.391C77.4238 115.016 77.7168 114.723 78.0918 114.723C78.4668 114.723 78.7598 115.016 78.7598 115.391C78.7598 115.766 78.4668 116.059 78.0918 116.059Z" fill="black" fill-opacity="0.5"/>
<path d="M34.0117 156.141C32.2246 156.141 30.9473 155.127 30.9473 153.715C30.9473 152.66 31.6738 151.793 32.7637 151.541V151.518C31.8496 151.236 31.2812 150.516 31.2812 149.625C31.2812 148.348 32.4414 147.404 34.0117 147.404C35.5938 147.404 36.7363 148.342 36.7363 149.631C36.7363 150.51 36.1797 151.225 35.2598 151.518V151.541C36.3555 151.799 37.082 152.666 37.082 153.715C37.082 155.133 35.8047 156.141 34.0117 156.141ZM34.0117 155.221C35.1777 155.221 36.0039 154.559 36.0039 153.639C36.0039 152.707 35.1777 152.051 34.0117 152.051C32.8516 152.051 32.0195 152.713 32.0195 153.639C32.0195 154.559 32.8516 155.221 34.0117 155.221ZM34.0117 151.125C34.9961 151.125 35.6934 150.545 35.6934 149.725C35.6934 148.893 35.002 148.312 34.0117 148.312C33.0215 148.312 32.3301 148.898 32.3301 149.725C32.3301 150.545 33.0215 151.125 34.0117 151.125ZM38.7988 157.682H37.9492L38.5176 154.699H39.6016L38.7988 157.682ZM44.1953 156.141C42.5781 156.141 41.3828 155.133 41.2949 153.691H42.332C42.4258 154.594 43.1934 155.215 44.207 155.215C45.3555 155.215 46.1523 154.418 46.1523 153.281C46.1523 152.145 45.3496 151.33 44.2246 151.33C43.4336 151.33 42.7598 151.688 42.4141 152.279H41.4238L41.8867 147.545H46.7266V148.482H42.7539L42.4961 151.236H42.5195C42.9004 150.727 43.6035 150.422 44.4121 150.422C46.0352 150.422 47.207 151.611 47.207 153.252C47.207 154.951 45.959 156.141 44.1953 156.141ZM51.2676 156.141C49.293 156.141 48.1504 154.441 48.1504 151.77C48.1504 149.121 49.3047 147.404 51.2676 147.404C53.2305 147.404 54.373 149.109 54.373 151.764C54.373 154.436 53.2363 156.141 51.2676 156.141ZM51.2676 155.221C52.5859 155.221 53.3125 153.879 53.3125 151.77C53.3125 149.689 52.5742 148.33 51.2676 148.33C49.9609 148.33 49.2109 149.701 49.2109 151.764C49.2109 153.873 49.9434 155.221 51.2676 155.221ZM62.5352 149.906V150.744H60.5664V156H59.5586V150.744H57.5898V149.906H62.5352ZM68.6934 156V149.906H69.7012V156H68.6934ZM65.623 152.689H64.4863V155.162H65.623C66.4141 155.162 66.9238 154.67 66.9238 153.926C66.9238 153.176 66.4082 152.689 65.623 152.689ZM63.4785 156V149.906H64.4863V151.852H65.6406C67.0352 151.852 67.9316 152.654 67.9316 153.926C67.9316 155.197 67.0352 156 65.6406 156H63.4785ZM76.1758 151.781H75.168C74.9922 151.195 74.4941 150.697 73.6328 150.697C72.5723 150.697 71.875 151.594 71.875 152.953C71.875 154.348 72.584 155.209 73.6445 155.209C74.4531 155.209 74.9863 154.811 75.1797 154.137H76.1875C75.9883 155.291 75.0098 156.105 73.6387 156.105C71.9453 156.105 70.8379 154.893 70.8379 152.953C70.8379 151.055 71.9395 149.801 73.627 149.801C75.0977 149.801 75.9941 150.744 76.1758 151.781ZM78.0566 156.059C77.6816 156.059 77.3887 155.766 77.3887 155.391C77.3887 155.016 77.6816 154.723 78.0566 154.723C78.4316 154.723 78.7246 155.016 78.7246 155.391C78.7246 155.766 78.4316 156.059 78.0566 156.059Z" fill="black" fill-opacity="0.5"/>
<path d="M33.9414 196.141C32.1543 196.141 30.877 195.127 30.877 193.715C30.877 192.66 31.6035 191.793 32.6934 191.541V191.518C31.7793 191.236 31.2109 190.516 31.2109 189.625C31.2109 188.348 32.3711 187.404 33.9414 187.404C35.5234 187.404 36.666 188.342 36.666 189.631C36.666 190.51 36.1094 191.225 35.1895 191.518V191.541C36.2852 191.799 37.0117 192.666 37.0117 193.715C37.0117 195.133 35.7344 196.141 33.9414 196.141ZM33.9414 195.221C35.1074 195.221 35.9336 194.559 35.9336 193.639C35.9336 192.707 35.1074 192.051 33.9414 192.051C32.7812 192.051 31.9492 192.713 31.9492 193.639C31.9492 194.559 32.7812 195.221 33.9414 195.221ZM33.9414 191.125C34.9258 191.125 35.623 190.545 35.623 189.725C35.623 188.893 34.9316 188.312 33.9414 188.312C32.9512 188.312 32.2598 188.898 32.2598 189.725C32.2598 190.545 32.9512 191.125 33.9414 191.125ZM38.7285 197.682H37.8789L38.4473 194.699H39.5312L38.7285 197.682ZM44.0605 196.141C42.0859 196.141 40.9434 194.441 40.9434 191.77C40.9434 189.121 42.0977 187.404 44.0605 187.404C46.0234 187.404 47.166 189.109 47.166 191.764C47.166 194.436 46.0293 196.141 44.0605 196.141ZM44.0605 195.221C45.3789 195.221 46.1055 193.879 46.1055 191.77C46.1055 189.689 45.3672 188.33 44.0605 188.33C42.7539 188.33 42.0039 189.701 42.0039 191.764C42.0039 193.873 42.7363 195.221 44.0605 195.221ZM51.3379 196.141C49.3633 196.141 48.2207 194.441 48.2207 191.77C48.2207 189.121 49.375 187.404 51.3379 187.404C53.3008 187.404 54.4434 189.109 54.4434 191.764C54.4434 194.436 53.3066 196.141 51.3379 196.141ZM51.3379 195.221C52.6562 195.221 53.3828 193.879 53.3828 191.77C53.3828 189.689 52.6445 188.33 51.3379 188.33C50.0312 188.33 49.2812 189.701 49.2812 191.764C49.2812 193.873 50.0137 195.221 51.3379 195.221ZM62.6055 189.906V190.744H60.6367V196H59.6289V190.744H57.6602V189.906H62.6055ZM68.7637 196V189.906H69.7715V196H68.7637ZM65.6934 192.689H64.5566V195.162H65.6934C66.4844 195.162 66.9941 194.67 66.9941 193.926C66.9941 193.176 66.4785 192.689 65.6934 192.689ZM63.5488 196V189.906H64.5566V191.852H65.7109C67.1055 191.852 68.002 192.654 68.002 193.926C68.002 195.197 67.1055 196 65.7109 196H63.5488ZM76.2461 191.781H75.2383C75.0625 191.195 74.5645 190.697 73.7031 190.697C72.6426 190.697 71.9453 191.594 71.9453 192.953C71.9453 194.348 72.6543 195.209 73.7148 195.209C74.5234 195.209 75.0566 194.811 75.25 194.137H76.2578C76.0586 195.291 75.0801 196.105 73.709 196.105C72.0156 196.105 70.9082 194.893 70.9082 192.953C70.9082 191.055 72.0098 189.801 73.6973 189.801C75.168 189.801 76.0645 190.744 76.2461 191.781ZM78.127 196.059C77.752 196.059 77.459 195.766 77.459 195.391C77.459 195.016 77.752 194.723 78.127 194.723C78.502 194.723 78.7949 195.016 78.7949 195.391C78.7949 195.766 78.502 196.059 78.127 196.059Z" fill="black" fill-opacity="0.5"/>
<path d="M31.4648 236L35.291 228.506V228.482H30.7383V227.545H36.334V228.523L32.5723 236H31.4648ZM36.9258 237.682H36.0762L36.6445 234.699H37.7285L36.9258 237.682ZM42.3223 236.141C40.7051 236.141 39.5098 235.133 39.4219 233.691H40.459C40.5527 234.594 41.3203 235.215 42.334 235.215C43.4824 235.215 44.2793 234.418 44.2793 233.281C44.2793 232.145 43.4766 231.33 42.3516 231.33C41.5605 231.33 40.8867 231.688 40.541 232.279H39.5508L40.0137 227.545H44.8535V228.482H40.8809L40.623 231.236H40.6465C41.0273 230.727 41.7305 230.422 42.5391 230.422C44.1621 230.422 45.334 231.611 45.334 233.252C45.334 234.951 44.0859 236.141 42.3223 236.141ZM49.3945 236.141C47.4199 236.141 46.2773 234.441 46.2773 231.77C46.2773 229.121 47.4316 227.404 49.3945 227.404C51.3574 227.404 52.5 229.109 52.5 231.764C52.5 234.436 51.3633 236.141 49.3945 236.141ZM49.3945 235.221C50.7129 235.221 51.4395 233.879 51.4395 231.77C51.4395 229.689 50.7012 228.33 49.3945 228.33C48.0879 228.33 47.3379 229.701 47.3379 231.764C47.3379 233.873 48.0703 235.221 49.3945 235.221ZM60.6621 229.906V230.744H58.6934V236H57.6855V230.744H55.7168V229.906H60.6621ZM66.8203 236V229.906H67.8281V236H66.8203ZM63.75 232.689H62.6133V235.162H63.75C64.541 235.162 65.0508 234.67 65.0508 233.926C65.0508 233.176 64.5352 232.689 63.75 232.689ZM61.6055 236V229.906H62.6133V231.852H63.7676C65.1621 231.852 66.0586 232.654 66.0586 233.926C66.0586 235.197 65.1621 236 63.7676 236H61.6055ZM74.3027 231.781H73.2949C73.1191 231.195 72.6211 230.697 71.7598 230.697C70.6992 230.697 70.002 231.594 70.002 232.953C70.002 234.348 70.7109 235.209 71.7715 235.209C72.5801 235.209 73.1133 234.811 73.3066 234.137H74.3145C74.1152 235.291 73.1367 236.105 71.7656 236.105C70.0723 236.105 68.9648 234.893 68.9648 232.953C68.9648 231.055 70.0664 229.801 71.7539 229.801C73.2246 229.801 74.1211 230.744 74.3027 231.781ZM76.1836 236.059C75.8086 236.059 75.5156 235.766 75.5156 235.391C75.5156 235.016 75.8086 234.723 76.1836 234.723C76.5586 234.723 76.8516 235.016 76.8516 235.391C76.8516 235.766 76.5586 236.059 76.1836 236.059Z" fill="black" fill-opacity="0.5"/>
<circle cx="118" cy="199" r="7" fill="#27AE60"/>
<path d="M105.607 256.799V253.495H103.744C102.531 253.495 101.846 254.086 101.846 255.141C101.846 256.202 102.537 256.799 103.744 256.799H105.607ZM103.908 257.749L101.576 261H100.322L102.748 257.62C101.553 257.344 100.762 256.401 100.762 255.141C100.762 253.612 101.881 252.545 103.469 252.545H106.662V261H105.607V257.749H103.908ZM112.275 261V258.258H109.27V261H108.262V254.907H109.27V257.42H112.275V254.907H113.283V261H112.275ZM117.186 255.733H115.727V257.438H117.033C117.801 257.438 118.17 257.157 118.17 256.571C118.17 256.032 117.824 255.733 117.186 255.733ZM117.115 258.258H115.727V260.174H117.297C118.035 260.174 118.434 259.84 118.434 259.225C118.434 258.575 118.006 258.258 117.115 258.258ZM114.719 261V254.907H117.326C118.469 254.907 119.166 255.499 119.166 256.465C119.166 257.086 118.727 257.661 118.164 257.778V257.825C118.932 257.93 119.436 258.487 119.436 259.249C119.436 260.327 118.639 261 117.344 261H114.719ZM122.617 260.239C123.578 260.239 124.316 259.565 124.316 258.686V258.188L122.688 258.288C121.867 258.34 121.398 258.704 121.398 259.278C121.398 259.858 121.885 260.239 122.617 260.239ZM122.389 261.106C121.176 261.106 120.361 260.374 120.361 259.278C120.361 258.235 121.164 257.579 122.57 257.497L124.316 257.397V256.887C124.316 256.143 123.824 255.698 122.98 255.698C122.195 255.698 121.703 256.067 121.574 256.665H120.59C120.66 255.61 121.562 254.801 123.004 254.801C124.434 254.801 125.336 255.575 125.336 256.788V261H124.369V259.952H124.346C123.982 260.649 123.209 261.106 122.389 261.106ZM129.707 254.801C131.26 254.801 132.314 256.043 132.314 257.954C132.314 259.864 131.266 261.106 129.73 261.106C128.857 261.106 128.154 260.678 127.791 260.01H127.768V263.034H126.748V254.907H127.715V255.938H127.738C128.113 255.252 128.822 254.801 129.707 254.801ZM129.508 260.209C130.592 260.209 131.271 259.336 131.271 257.954C131.271 256.577 130.592 255.698 129.508 255.698C128.465 255.698 127.762 256.6 127.762 257.954C127.762 259.313 128.465 260.209 129.508 260.209ZM135.59 257.69H134.453V260.163H135.59C136.381 260.163 136.891 259.67 136.891 258.926C136.891 258.176 136.375 257.69 135.59 257.69ZM133.445 261V254.907H134.453V256.852H135.607C137.002 256.852 137.898 257.655 137.898 258.926C137.898 260.198 137.002 261 135.607 261H133.445Z" fill="black"/>
<path d="M189.963 259.29V254.198C188.311 254.262 187.291 255.235 187.291 256.741C187.291 258.264 188.311 259.237 189.963 259.29ZM193.672 256.747C193.672 255.229 192.652 254.25 191.006 254.198V259.29C192.652 259.225 193.672 258.252 193.672 256.747ZM189.963 260.233C187.672 260.18 186.225 258.827 186.225 256.741C186.225 254.667 187.666 253.319 189.963 253.254V252.428H191.006V253.254C193.297 253.307 194.738 254.661 194.738 256.747C194.738 258.821 193.297 260.168 191.006 260.233V261.118H189.963V260.233ZM198.406 255.686C197.451 255.686 196.783 256.418 196.719 257.432H200.029C200.006 256.413 199.367 255.686 198.406 255.686ZM200.006 259.254H201.008C200.832 260.321 199.801 261.106 198.471 261.106C196.725 261.106 195.664 259.893 195.664 257.977C195.664 256.084 196.742 254.801 198.424 254.801C200.07 254.801 201.084 255.997 201.084 257.842V258.229H196.713V258.288C196.713 259.454 197.398 260.221 198.494 260.221C199.268 260.221 199.836 259.829 200.006 259.254ZM204.682 255.733H203.223V257.438H204.529C205.297 257.438 205.666 257.157 205.666 256.571C205.666 256.032 205.32 255.733 204.682 255.733ZM204.611 258.258H203.223V260.174H204.793C205.531 260.174 205.93 259.84 205.93 259.225C205.93 258.575 205.502 258.258 204.611 258.258ZM202.215 261V254.907H204.822C205.965 254.907 206.662 255.499 206.662 256.465C206.662 257.086 206.223 257.661 205.66 257.778V257.825C206.428 257.93 206.932 258.487 206.932 259.249C206.932 260.327 206.135 261 204.84 261H202.215ZM211.062 254.801C212.615 254.801 213.67 256.043 213.67 257.954C213.67 259.864 212.621 261.106 211.086 261.106C210.213 261.106 209.51 260.678 209.146 260.01H209.123V263.034H208.104V254.907H209.07V255.938H209.094C209.469 255.252 210.178 254.801 211.062 254.801ZM210.863 260.209C211.947 260.209 212.627 259.336 212.627 257.954C212.627 256.577 211.947 255.698 210.863 255.698C209.82 255.698 209.117 256.6 209.117 257.954C209.117 259.313 209.82 260.209 210.863 260.209ZM216.816 260.239C217.777 260.239 218.516 259.565 218.516 258.686V258.188L216.887 258.288C216.066 258.34 215.598 258.704 215.598 259.278C215.598 259.858 216.084 260.239 216.816 260.239ZM216.588 261.106C215.375 261.106 214.561 260.374 214.561 259.278C214.561 258.235 215.363 257.579 216.77 257.497L218.516 257.397V256.887C218.516 256.143 218.023 255.698 217.18 255.698C216.395 255.698 215.902 256.067 215.773 256.665H214.789C214.859 255.61 215.762 254.801 217.203 254.801C218.633 254.801 219.535 255.575 219.535 256.788V261H218.568V259.952H218.545C218.182 260.649 217.408 261.106 216.588 261.106ZM222.57 258.311C222.447 259.993 222.043 261.053 220.76 261.053C220.584 261.053 220.467 261.018 220.396 260.989V260.069C220.449 260.086 220.561 260.116 220.707 260.116C221.311 260.116 221.539 259.407 221.615 258.288L221.85 254.907H225.84V261H224.832V255.745H222.758L222.57 258.311ZM229.426 257.69H228.289V260.163H229.426C230.217 260.163 230.727 259.67 230.727 258.926C230.727 258.176 230.211 257.69 229.426 257.69ZM227.281 261V254.907H228.289V256.852H229.443C230.838 256.852 231.734 257.655 231.734 258.926C231.734 260.198 230.838 261 229.443 261H227.281Z" fill="black"/>
<path d="M288.666 261H287.682V254.485H287.641L284.945 260.942H284.055L281.359 254.485H281.318V261H280.334V252.545H281.559L284.477 259.6H284.523L287.441 252.545H288.666V261ZM292.275 260.239C293.236 260.239 293.975 259.565 293.975 258.686V258.188L292.346 258.288C291.525 258.34 291.057 258.704 291.057 259.278C291.057 259.858 291.543 260.239 292.275 260.239ZM292.047 261.106C290.834 261.106 290.02 260.374 290.02 259.278C290.02 258.235 290.822 257.579 292.229 257.497L293.975 257.397V256.887C293.975 256.143 293.482 255.698 292.639 255.698C291.854 255.698 291.361 256.067 291.232 256.665H290.248C290.318 255.61 291.221 254.801 292.662 254.801C294.092 254.801 294.994 255.575 294.994 256.788V261H294.027V259.952H294.004C293.641 260.649 292.867 261.106 292.047 261.106ZM299.365 254.801C300.918 254.801 301.973 256.043 301.973 257.954C301.973 259.864 300.924 261.106 299.389 261.106C298.516 261.106 297.812 260.678 297.449 260.01H297.426V263.034H296.406V254.907H297.373V255.938H297.396C297.771 255.252 298.48 254.801 299.365 254.801ZM299.166 260.209C300.25 260.209 300.93 259.336 300.93 257.954C300.93 256.577 300.25 255.698 299.166 255.698C298.123 255.698 297.42 256.6 297.42 257.954C297.42 259.313 298.123 260.209 299.166 260.209ZM307.328 254.907V255.745H305.359V261H304.352V255.745H302.383V254.907H307.328Z" fill="black"/>
<path d="M361.557 261L360.707 258.581H357.344L356.494 261H355.387L358.504 252.545H359.547L362.664 261H361.557ZM359.008 253.829L357.654 257.684H360.396L359.043 253.829H359.008ZM367.539 261V255.745H364.592V261H363.584V254.907H368.553V261H367.539ZM372.947 254.801C374.5 254.801 375.555 256.043 375.555 257.954C375.555 259.864 374.506 261.106 372.971 261.106C372.098 261.106 371.395 260.678 371.031 260.01H371.008V263.034H369.988V254.907H370.955V255.938H370.979C371.354 255.252 372.062 254.801 372.947 254.801ZM372.748 260.209C373.832 260.209 374.512 259.336 374.512 257.954C374.512 256.577 373.832 255.698 372.748 255.698C371.705 255.698 371.002 256.6 371.002 257.954C371.002 259.313 371.705 260.209 372.748 260.209ZM379.135 255.686C378.18 255.686 377.512 256.418 377.447 257.432H380.758C380.734 256.413 380.096 255.686 379.135 255.686ZM380.734 259.254H381.736C381.561 260.321 380.529 261.106 379.199 261.106C377.453 261.106 376.393 259.893 376.393 257.977C376.393 256.084 377.471 254.801 379.152 254.801C380.799 254.801 381.812 255.997 381.812 257.842V258.229H377.441V258.288C377.441 259.454 378.127 260.221 379.223 260.221C379.996 260.221 380.564 259.829 380.734 259.254ZM384.338 258.311C384.215 259.993 383.811 261.053 382.527 261.053C382.352 261.053 382.234 261.018 382.164 260.989V260.069C382.217 260.086 382.328 260.116 382.475 260.116C383.078 260.116 383.307 259.407 383.383 258.288L383.617 254.907H387.607V261H386.6V255.745H384.525L384.338 258.311ZM391.193 257.69H390.057V260.163H391.193C391.984 260.163 392.494 259.67 392.494 258.926C392.494 258.176 391.979 257.69 391.193 257.69ZM389.049 261V254.907H390.057V256.852H391.211C392.605 256.852 393.502 257.655 393.502 258.926C393.502 260.198 392.605 261 391.211 261H389.049Z" fill="black"/>
<path d="M450.119 261H449.135V254.485H449.094L446.398 260.942H445.508L442.812 254.485H442.771V261H441.787V252.545H443.012L445.93 259.6H445.977L448.895 252.545H450.119V261ZM453.729 260.239C454.689 260.239 455.428 259.565 455.428 258.686V258.188L453.799 258.288C452.979 258.34 452.51 258.704 452.51 259.278C452.51 259.858 452.996 260.239 453.729 260.239ZM453.5 261.106C452.287 261.106 451.473 260.374 451.473 259.278C451.473 258.235 452.275 257.579 453.682 257.497L455.428 257.397V256.887C455.428 256.143 454.936 255.698 454.092 255.698C453.307 255.698 452.814 256.067 452.686 256.665H451.701C451.771 255.61 452.674 254.801 454.115 254.801C455.545 254.801 456.447 255.575 456.447 256.788V261H455.48V259.952H455.457C455.094 260.649 454.32 261.106 453.5 261.106ZM458.861 261H457.854V254.907H458.861V259.442H458.908L461.955 254.907H462.963V261H461.955V256.465H461.908L458.861 261ZM458.633 252.27H459.383C459.383 252.95 459.822 253.483 460.52 253.483C461.217 253.483 461.656 252.95 461.656 252.27H462.406C462.406 253.348 461.639 254.086 460.52 254.086C459.4 254.086 458.633 253.348 458.633 252.27Z" fill="black"/>
<path d="M517.223 261V254.274H517.129L512.559 261H511.516V252.545H512.559V259.295H512.652L517.223 252.545H518.266V261H517.223ZM524.723 261.106C523.105 261.106 522.074 260.034 521.963 258.258H520.867V261H519.859V254.907H520.867V257.42H521.986C522.168 255.78 523.176 254.801 524.723 254.801C526.434 254.801 527.488 255.991 527.488 257.954C527.488 259.911 526.434 261.106 524.723 261.106ZM524.723 260.204C525.824 260.204 526.445 259.383 526.445 257.954C526.445 256.518 525.824 255.704 524.723 255.704C523.621 255.704 523 256.518 523 257.954C523 259.383 523.621 260.204 524.723 260.204ZM532.639 261V258.258H529.633V261H528.625V254.907H529.633V257.42H532.639V254.907H533.646V261H532.639ZM537.227 257.69H536.09V260.163H537.227C538.018 260.163 538.527 259.67 538.527 258.926C538.527 258.176 538.012 257.69 537.227 257.69ZM535.082 261V254.907H536.09V256.852H537.244C538.639 256.852 539.535 257.655 539.535 258.926C539.535 260.198 538.639 261 537.244 261H535.082Z" fill="black"/>
<path d="M593.949 261V254.274H593.855L589.285 261H588.242V252.545H589.285V259.295H589.379L593.949 252.545H594.992V261H593.949ZM601.449 261.106C599.832 261.106 598.801 260.034 598.689 258.258H597.594V261H596.586V254.907H597.594V257.42H598.713C598.895 255.78 599.902 254.801 601.449 254.801C603.16 254.801 604.215 255.991 604.215 257.954C604.215 259.911 603.16 261.106 601.449 261.106ZM601.449 260.204C602.551 260.204 603.172 259.383 603.172 257.954C603.172 256.518 602.551 255.704 601.449 255.704C600.348 255.704 599.727 256.518 599.727 257.954C599.727 259.383 600.348 260.204 601.449 260.204ZM606.746 258.311C606.623 259.993 606.219 261.053 604.936 261.053C604.76 261.053 604.643 261.018 604.572 260.989V260.069C604.625 260.086 604.736 260.116 604.883 260.116C605.486 260.116 605.715 259.407 605.791 258.288L606.025 254.907H610.016V261H609.008V255.745H606.934L606.746 258.311ZM613.602 257.69H612.465V260.163H613.602C614.393 260.163 614.902 259.67 614.902 258.926C614.902 258.176 614.387 257.69 613.602 257.69ZM611.457 261V254.907H612.465V256.852H613.619C615.014 256.852 615.91 257.655 615.91 258.926C615.91 260.198 615.014 261 613.619 261H611.457Z" fill="black"/>
<path d="M669.467 261L668.617 258.581H665.254L664.404 261H663.297L666.414 252.545H667.457L670.574 261H669.467ZM666.918 253.829L665.564 257.684H668.307L666.953 253.829H666.918ZM673.961 255.733H672.502V257.438H673.809C674.576 257.438 674.945 257.157 674.945 256.571C674.945 256.032 674.6 255.733 673.961 255.733ZM673.891 258.258H672.502V260.174H674.072C674.811 260.174 675.209 259.84 675.209 259.225C675.209 258.575 674.781 258.258 673.891 258.258ZM671.494 261V254.907H674.102C675.244 254.907 675.941 255.499 675.941 256.465C675.941 257.086 675.502 257.661 674.939 257.778V257.825C675.707 257.93 676.211 258.487 676.211 259.249C676.211 260.327 675.414 261 674.119 261H671.494ZM681.297 255.745H678.385V261H677.377V254.907H681.297V255.745ZM682.914 263.28C682.791 263.28 682.586 263.268 682.475 263.245V262.389C682.586 262.413 682.744 262.418 682.873 262.418C683.441 262.418 683.758 262.143 683.992 261.434L684.133 261.006L681.883 254.907H682.973L684.66 259.981H684.678L686.365 254.907H687.438L685.041 261.428C684.52 262.852 684.016 263.28 682.914 263.28ZM693.215 256.782H692.207C692.031 256.196 691.533 255.698 690.672 255.698C689.611 255.698 688.914 256.594 688.914 257.954C688.914 259.348 689.623 260.209 690.684 260.209C691.492 260.209 692.025 259.811 692.219 259.137H693.227C693.027 260.292 692.049 261.106 690.678 261.106C688.984 261.106 687.877 259.893 687.877 257.954C687.877 256.055 688.979 254.801 690.666 254.801C692.137 254.801 693.033 255.745 693.215 256.782ZM698.629 254.907V255.745H696.66V261H695.652V255.745H693.684V254.907H698.629Z" fill="black"/>
<path d="M750.178 261.141C747.846 261.141 746.369 259.448 746.369 256.77C746.369 254.116 747.863 252.405 750.178 252.405C751.977 252.405 753.354 253.471 753.664 255.094H752.586C752.281 254.051 751.338 253.377 750.178 253.377C748.525 253.377 747.453 254.713 747.453 256.77C747.453 258.844 748.514 260.168 750.184 260.168C751.385 260.168 752.252 259.612 752.586 258.645H753.664C753.248 260.25 752.006 261.141 750.178 261.141ZM757.314 255.686C756.359 255.686 755.691 256.418 755.627 257.432H758.938C758.914 256.413 758.275 255.686 757.314 255.686ZM758.914 259.254H759.916C759.74 260.321 758.709 261.106 757.379 261.106C755.633 261.106 754.572 259.893 754.572 257.977C754.572 256.084 755.65 254.801 757.332 254.801C758.979 254.801 759.992 255.997 759.992 257.842V258.229H755.621V258.288C755.621 259.454 756.307 260.221 757.402 260.221C758.176 260.221 758.744 259.829 758.914 259.254ZM765.137 261V258.258H762.131V261H761.123V254.907H762.131V257.42H765.137V254.907H766.145V261H765.137ZM772.039 254.907V255.745H770.07V261H769.062V255.745H767.094V254.907H772.039ZM774.998 257.995H776.164V255.745H774.998C774.207 255.745 773.703 256.178 773.703 256.911C773.703 257.543 774.213 257.995 774.998 257.995ZM776.164 261V258.833H775.086L773.539 261H772.373L774.072 258.645C773.211 258.399 772.689 257.766 772.689 256.928C772.689 255.674 773.592 254.907 774.992 254.907H777.172V261H776.164ZM781.221 261.106C779.352 261.106 778.367 259.852 778.367 257.432C778.367 254.069 779.258 252.668 781.625 252.581L782.076 252.563C782.662 252.534 783.318 252.417 783.664 252.235V253.125C783.471 253.301 782.826 253.454 782.123 253.483L781.672 253.5C779.979 253.565 779.475 254.309 779.229 256.131H779.275C779.674 255.411 780.436 255.036 781.373 255.036C783.02 255.036 784.068 256.196 784.068 258.012C784.068 259.928 782.984 261.106 781.221 261.106ZM781.221 260.204C782.363 260.204 783.025 259.413 783.025 258.012C783.025 256.682 782.363 255.926 781.221 255.926C780.072 255.926 779.41 256.682 779.41 258.012C779.41 259.413 780.072 260.204 781.221 260.204ZM788.17 254.801C789.723 254.801 790.777 256.043 790.777 257.954C790.777 259.864 789.729 261.106 788.193 261.106C787.32 261.106 786.617 260.678 786.254 260.01H786.23V263.034H785.211V254.907H786.178V255.938H786.201C786.576 255.252 787.285 254.801 788.17 254.801ZM787.971 260.209C789.055 260.209 789.734 259.336 789.734 257.954C789.734 256.577 789.055 255.698 787.971 255.698C786.928 255.698 786.225 256.6 786.225 257.954C786.225 259.313 786.928 260.209 787.971 260.209ZM794.053 257.69H792.916V260.163H794.053C794.844 260.163 795.354 259.67 795.354 258.926C795.354 258.176 794.838 257.69 794.053 257.69ZM791.908 261V254.907H792.916V256.852H794.07C795.465 256.852 796.361 257.655 796.361 258.926C796.361 260.198 795.465 261 794.07 261H791.908Z" fill="black"/>
<path d="M847.992 252.405C850.389 252.405 851.889 254.092 851.889 256.776C851.889 259.459 850.389 261.141 847.992 261.141C845.596 261.141 844.096 259.459 844.096 256.776C844.096 254.092 845.596 252.405 847.992 252.405ZM847.992 253.377C846.264 253.377 845.18 254.69 845.18 256.776C845.18 258.856 846.264 260.168 847.992 260.168C849.721 260.168 850.805 258.856 850.805 256.776C850.805 254.69 849.721 253.377 847.992 253.377ZM855.223 257.79L858.152 261H856.84L854.209 258.071H854.162V261H853.154V254.907H854.162V257.602H854.209L856.811 254.907H858.07L855.223 257.79ZM863.344 254.907V255.745H861.375V261H860.367V255.745H858.398V254.907H863.344ZM866.303 257.995H867.469V255.745H866.303C865.512 255.745 865.008 256.178 865.008 256.911C865.008 257.543 865.518 257.995 866.303 257.995ZM867.469 261V258.833H866.391L864.844 261H863.678L865.377 258.645C864.516 258.399 863.994 257.766 863.994 256.928C863.994 255.674 864.896 254.907 866.297 254.907H868.477V261H867.469ZM872.525 261.106C870.656 261.106 869.672 259.852 869.672 257.432C869.672 254.069 870.562 252.668 872.93 252.581L873.381 252.563C873.967 252.534 874.623 252.417 874.969 252.235V253.125C874.775 253.301 874.131 253.454 873.428 253.483L872.977 253.5C871.283 253.565 870.779 254.309 870.533 256.131H870.58C870.979 255.411 871.74 255.036 872.678 255.036C874.324 255.036 875.373 256.196 875.373 258.012C875.373 259.928 874.289 261.106 872.525 261.106ZM872.525 260.204C873.668 260.204 874.33 259.413 874.33 258.012C874.33 256.682 873.668 255.926 872.525 255.926C871.377 255.926 870.715 256.682 870.715 258.012C870.715 259.413 871.377 260.204 872.525 260.204ZM879.475 254.801C881.027 254.801 882.082 256.043 882.082 257.954C882.082 259.864 881.033 261.106 879.498 261.106C878.625 261.106 877.922 260.678 877.559 260.01H877.535V263.034H876.516V254.907H877.482V255.938H877.506C877.881 255.252 878.59 254.801 879.475 254.801ZM879.275 260.209C880.359 260.209 881.039 259.336 881.039 257.954C881.039 256.577 880.359 255.698 879.275 255.698C878.232 255.698 877.529 256.6 877.529 257.954C877.529 259.313 878.232 260.209 879.275 260.209ZM885.357 257.69H884.221V260.163H885.357C886.148 260.163 886.658 259.67 886.658 258.926C886.658 258.176 886.143 257.69 885.357 257.69ZM883.213 261V254.907H884.221V256.852H885.375C886.77 256.852 887.666 257.655 887.666 258.926C887.666 260.198 886.77 261 885.375 261H883.213Z" fill="black"/>
<path d="M942.902 261H941.848V257.151H937.207V261H936.152V252.545H937.207V256.202H941.848V252.545H942.902V261ZM947.027 261.106C945.34 261.106 944.203 259.893 944.203 257.954C944.203 256.008 945.34 254.801 947.027 254.801C948.709 254.801 949.846 256.008 949.846 257.954C949.846 259.893 948.709 261.106 947.027 261.106ZM947.027 260.209C948.105 260.209 948.809 259.389 948.809 257.954C948.809 256.518 948.105 255.698 947.027 255.698C945.949 255.698 945.24 256.518 945.24 257.954C945.24 259.389 945.949 260.209 947.027 260.209ZM953.109 257.995H954.275V255.745H953.109C952.318 255.745 951.814 256.178 951.814 256.911C951.814 257.543 952.324 257.995 953.109 257.995ZM954.275 261V258.833H953.197L951.65 261H950.484L952.184 258.645C951.322 258.399 950.801 257.766 950.801 256.928C950.801 255.674 951.703 254.907 953.104 254.907H955.283V261H954.275ZM959.332 261.106C957.463 261.106 956.479 259.852 956.479 257.432C956.479 254.069 957.369 252.668 959.736 252.581L960.188 252.563C960.773 252.534 961.43 252.417 961.775 252.235V253.125C961.582 253.301 960.938 253.454 960.234 253.483L959.783 253.5C958.09 253.565 957.586 254.309 957.34 256.131H957.387C957.785 255.411 958.547 255.036 959.484 255.036C961.131 255.036 962.18 256.196 962.18 258.012C962.18 259.928 961.096 261.106 959.332 261.106ZM959.332 260.204C960.475 260.204 961.137 259.413 961.137 258.012C961.137 256.682 960.475 255.926 959.332 255.926C958.184 255.926 957.521 256.682 957.521 258.012C957.521 259.413 958.184 260.204 959.332 260.204ZM966.281 254.801C967.834 254.801 968.889 256.043 968.889 257.954C968.889 259.864 967.84 261.106 966.305 261.106C965.432 261.106 964.729 260.678 964.365 260.01H964.342V263.034H963.322V254.907H964.289V255.938H964.312C964.688 255.252 965.396 254.801 966.281 254.801ZM966.082 260.209C967.166 260.209 967.846 259.336 967.846 257.954C967.846 256.577 967.166 255.698 966.082 255.698C965.039 255.698 964.336 256.6 964.336 257.954C964.336 259.313 965.039 260.209 966.082 260.209ZM972.164 257.69H971.027V260.163H972.164C972.955 260.163 973.465 259.67 973.465 258.926C973.465 258.176 972.949 257.69 972.164 257.69ZM970.02 261V254.907H971.027V256.852H972.182C973.576 256.852 974.473 257.655 974.473 258.926C974.473 260.198 973.576 261 972.182 261H970.02Z" fill="black"/>
<path d="M1024.7 257.889C1024.64 258.856 1024.53 259.5 1024.11 260.004V260.051H1028.21V253.495H1024.98L1024.7 257.889ZM1023.15 261V262.67H1022.18V260.051H1022.8C1023.42 259.723 1023.65 258.973 1023.71 257.866L1024.03 252.545H1029.27V260.051H1030.32V262.67H1029.34V261H1023.15ZM1033.84 255.686C1032.88 255.686 1032.21 256.418 1032.15 257.432H1035.46C1035.44 256.413 1034.8 255.686 1033.84 255.686ZM1035.44 259.254H1036.44C1036.26 260.321 1035.23 261.106 1033.9 261.106C1032.15 261.106 1031.09 259.893 1031.09 257.977C1031.09 256.084 1032.17 254.801 1033.85 254.801C1035.5 254.801 1036.51 255.997 1036.51 257.842V258.229H1032.14V258.288C1032.14 259.454 1032.83 260.221 1033.92 260.221C1034.7 260.221 1035.27 259.829 1035.44 259.254ZM1039.71 257.79L1042.64 261H1041.33L1038.7 258.071H1038.65V261H1037.64V254.907H1038.65V257.602H1038.7L1041.3 254.907H1042.56L1039.71 257.79ZM1045.33 260.239C1046.29 260.239 1047.03 259.565 1047.03 258.686V258.188L1045.4 258.288C1044.58 258.34 1044.11 258.704 1044.11 259.278C1044.11 259.858 1044.6 260.239 1045.33 260.239ZM1045.1 261.106C1043.89 261.106 1043.08 260.374 1043.08 259.278C1043.08 258.235 1043.88 257.579 1045.29 257.497L1047.03 257.397V256.887C1047.03 256.143 1046.54 255.698 1045.7 255.698C1044.91 255.698 1044.42 256.067 1044.29 256.665H1043.3C1043.38 255.61 1044.28 254.801 1045.72 254.801C1047.15 254.801 1048.05 255.575 1048.05 256.788V261H1047.08V259.952H1047.06C1046.7 260.649 1045.92 261.106 1045.1 261.106ZM1052.07 261.106C1050.2 261.106 1049.22 259.852 1049.22 257.432C1049.22 254.069 1050.11 252.668 1052.47 252.581L1052.93 252.563C1053.51 252.534 1054.17 252.417 1054.51 252.235V253.125C1054.32 253.301 1053.68 253.454 1052.97 253.483L1052.52 253.5C1050.83 253.565 1050.32 254.309 1050.08 256.131H1050.12C1050.52 255.411 1051.29 255.036 1052.22 255.036C1053.87 255.036 1054.92 256.196 1054.92 258.012C1054.92 259.928 1053.83 261.106 1052.07 261.106ZM1052.07 260.204C1053.21 260.204 1053.88 259.413 1053.88 258.012C1053.88 256.682 1053.21 255.926 1052.07 255.926C1050.92 255.926 1050.26 256.682 1050.26 258.012C1050.26 259.413 1050.92 260.204 1052.07 260.204ZM1059.02 254.801C1060.57 254.801 1061.63 256.043 1061.63 257.954C1061.63 259.864 1060.58 261.106 1059.04 261.106C1058.17 261.106 1057.47 260.678 1057.1 260.01H1057.08V263.034H1056.06V254.907H1057.03V255.938H1057.05C1057.43 255.252 1058.13 254.801 1059.02 254.801ZM1058.82 260.209C1059.9 260.209 1060.58 259.336 1060.58 257.954C1060.58 256.577 1059.9 255.698 1058.82 255.698C1057.78 255.698 1057.07 256.6 1057.07 257.954C1057.07 259.313 1057.78 260.209 1058.82 260.209ZM1064.9 257.69H1063.77V260.163H1064.9C1065.69 260.163 1066.2 259.67 1066.2 258.926C1066.2 258.176 1065.69 257.69 1064.9 257.69ZM1062.76 261V254.907H1063.77V256.852H1064.92C1066.31 256.852 1067.21 257.655 1067.21 258.926C1067.21 260.198 1066.31 261 1064.92 261H1062.76Z" fill="black"/>
</svg>
